<svg xmlns="http://www.w3.org/2000/svg" viewBox="0 0 1005.21 1835.21"><defs><style>.cls-1{font-size:56.5px;fill:#ff0;font-family:ArialMT, Arial;}.cls-2,.cls-3{fill:none;stroke-linecap:round;stroke-linejoin:round;stroke-width:0.71px;}.cls-2{stroke:aqua;}.cls-3{stroke:blue;}</style></defs><title>finpiece</title><g id="Layer_2" data-name="Layer 2"><g id="_1_ANYTOOL_1MMDEEP_INSIDE" data-name="1_ANYTOOL_1MMDEEP_INSIDE"><g id="MTEXT"><text class="cls-1" transform="translate(162.08 1220.85) rotate(-90)">FRA-A/F6</text></g></g><g id="_3_ANYTOOL_CUTTHROUGH_INSID" data-name="3_ANYTOOL_CUTTHROUGH_INSID"><g id="LWPOLYLINE"><rect class="cls-2" x="250.1" y="162.1" width="18" height="60"/></g><g id="LWPOLYLINE-2" data-name="LWPOLYLINE"><rect class="cls-2" x="18.1" y="1062.1" width="18" height="60"/></g><g id="LWPOLYLINE-3" data-name="LWPOLYLINE"><rect class="cls-2" x="18.1" y="762.1" width="18" height="60"/></g><g id="LWPOLYLINE-4" data-name="LWPOLYLINE"><rect class="cls-2" x="250.1" y="1362.1" width="18" height="60"/></g><g id="LWPOLYLINE-5" data-name="LWPOLYLINE"><rect class="cls-2" x="123.1" y="183.1" width="40" height="18"/></g><g id="LWPOLYLINE-6" data-name="LWPOLYLINE"><rect class="cls-2" x="123.1" y="783.1" width="40" height="18"/></g><g id="LWPOLYLINE-7" data-name="LWPOLYLINE"><polygon class="cls-2" points="179.6 1677.6 179.6 1706.6 168.6 1706.6 168.6 1701.6 117.6 1701.6 117.6 1706.6 106.6 1706.6 106.6 1677.6 117.6 1677.6 117.6 1682.6 168.6 1682.6 168.6 1677.6 179.6 1677.6"/></g><g id="LWPOLYLINE-8" data-name="LWPOLYLINE"><rect class="cls-2" x="133.6" y="1533.6" width="19" height="136"/></g><g id="LWPOLYLINE-9" data-name="LWPOLYLINE"><rect class="cls-2" x="18.1" y="462.1" width="18" height="60"/></g><g id="LWPOLYLINE-10" data-name="LWPOLYLINE"><rect class="cls-2" x="250.1" y="762.1" width="18" height="60"/></g><g id="LWPOLYLINE-11" data-name="LWPOLYLINE"><polygon class="cls-2" points="457.6 1655.6 457.6 1666.6 452.6 1666.6 452.6 1717.6 457.6 1717.6 457.6 1728.6 428.6 1728.6 428.6 1717.6 433.6 1717.6 433.6 1666.6 428.6 1666.6 428.6 1655.6 457.6 1655.6"/></g><g id="LWPOLYLINE-12" data-name="LWPOLYLINE"><rect class="cls-2" x="250.1" y="462.1" width="18" height="60"/></g><g id="LWPOLYLINE-13" data-name="LWPOLYLINE"><rect class="cls-2" x="250.1" y="1062.1" width="18" height="60"/></g><g id="LWPOLYLINE-14" data-name="LWPOLYLINE"><rect class="cls-2" x="18.1" y="162.1" width="18" height="60"/></g><g id="LWPOLYLINE-15" data-name="LWPOLYLINE"><rect class="cls-2" x="18.1" y="1362.1" width="18" height="60"/></g><g id="LWPOLYLINE-16" data-name="LWPOLYLINE"><rect class="cls-2" x="413.1" y="1567.1" width="60" height="18"/></g><g id="LWPOLYLINE-17" data-name="LWPOLYLINE"><rect class="cls-2" x="713.1" y="1567.1" width="60" height="18"/></g><g id="LWPOLYLINE-18" data-name="LWPOLYLINE"><rect class="cls-2" x="18.1" y="1662.1" width="18" height="60"/></g><g id="LWPOLYLINE-19" data-name="LWPOLYLINE"><rect class="cls-2" x="413.1" y="1799.1" width="60" height="18"/></g><g id="LWPOLYLINE-20" data-name="LWPOLYLINE"><rect class="cls-2" x="713.1" y="1799.1" width="60" height="18"/></g></g><g id="_6_ANYTOOL_CUTTHROUGH_OUTSI" data-name="6_ANYTOOL_CUTTHROUGH_OUTSI"><g id="LWPOLYLINE-21" data-name="LWPOLYLINE"><path class="cls-3" d="M285.85,281.85h-23v10.5h5v99.5h-5v10.5h23v179.5h-23v10.5h5v99.5h-5v10.5h23v179.5h-23v10.5h5v99.5h-5v10.5h23v179.5h-23v10.5h5v99.5h-5v10.5h23v179.5h-23v10.5h5v75h75v5h10.5v-23h179.5v23h10.5v-5h99.5v5h10.5v-23h179.5v23h10.5v-5h76.5v40a10.25,10.25,0,0,0,10.25,10.25h65a9.75,9.75,0,0,1,9.75,9.75v29.5a9.75,9.75,0,0,1-9.75,9.75h-65a10.25,10.25,0,0,0-10.25,10.25v30.5a10.25,10.25,0,0,0,10.25,10.25h65a9.75,9.75,0,0,1,9.75,9.75v29.5a9.75,9.75,0,0,1-9.75,9.75h-65a10.25,10.25,0,0,0-10.25,10.25v40h-76.5v-5h-10.5v23H653.35v-23h-10.5v5h-99.5v-5h-10.5v23H353.35v-23h-10.5v5H184.35v-25.5h5v-10.5H96.85v10.5h5v43.5H72.35v-23H61.85v5H18.35v-24.5h5v-10.5H.35v-179.5h23v-10.5h-5v-99.5h5v-10.5H.35v-179.5h23v-10.5h-5v-99.5h5v-10.5H.35v-179.5h23v-10.5h-5v-99.5h5v-10.5H.35V702.35h23v-10.5h-5v-99.5h5v-10.5H.35V402.35h23v-10.5h-5v-99.5h5v-10.5H.35V102.35h23V91.85h-5v-6.5h40A10.25,10.25,0,0,0,68.6,75.1v-65A9.75,9.75,0,0,1,78.35.35h29.5a9.75,9.75,0,0,1,9.75,9.75v65a10.25,10.25,0,0,0,10.25,10.25h30.5A10.25,10.25,0,0,0,168.6,75.1v-65A9.75,9.75,0,0,1,178.35.35h29.5a9.75,9.75,0,0,1,9.75,9.75v65a10.25,10.25,0,0,0,10.25,10.25h40v6.5h-5v10.5h23Z"/></g></g></g></svg>