<svg xmlns="http://www.w3.org/2000/svg" viewBox="0 0 1065.36 900.12"><defs><style>.cls-1{font-size:56.5px;fill:#ff0;font-family:ArialMT, Arial;}.cls-2,.cls-3{fill:none;stroke-linecap:round;stroke-linejoin:round;stroke-width:0.71px;}.cls-2{stroke:aqua;}.cls-3{stroke:blue;}</style></defs><title>reinforcer</title><g id="Layer_2" data-name="Layer 2"><g id="_1_ANYTOOL_1MMDEEP_INSIDE" data-name="1_ANYTOOL_1MMDEEP_INSIDE"><g id="MTEXT"><text class="cls-1" transform="translate(360.37 171.18)">FRA-A/R4</text></g></g><g id="_3_ANYTOOL_CUTTHROUGH_INSID" data-name="3_ANYTOOL_CUTTHROUGH_INSID"><g id="LWPOLYLINE"><rect class="cls-2" x="782.89" y="722.78" width="18" height="60" transform="translate(-166.6 228.31) rotate(-14.86)"/></g><g id="LWPOLYLINE-2" data-name="LWPOLYLINE"><rect class="cls-2" x="705.94" y="432.82" width="18" height="60" transform="translate(-94.8 198.87) rotate(-14.86)"/></g><g id="LWPOLYLINE-3" data-name="LWPOLYLINE"><rect class="cls-2" x="1007.12" y="663.27" width="18" height="60" transform="translate(-143.83 283.84) rotate(-14.86)"/></g><g id="LWPOLYLINE-4" data-name="LWPOLYLINE"><rect class="cls-2" x="420.1" y="250.1" width="60" height="18"/></g><g id="LWPOLYLINE-5" data-name="LWPOLYLINE"><rect class="cls-2" x="930.17" y="373.31" width="18" height="60" transform="matrix(0.97, -0.26, 0.26, 0.97, -72.03, 254.39)"/></g><g id="LWPOLYLINE-6" data-name="LWPOLYLINE"><rect class="cls-2" x="120.1" y="250.1" width="60" height="18"/></g><g id="LWPOLYLINE-7" data-name="LWPOLYLINE"><rect class="cls-2" x="420.1" y="18.1" width="60" height="18"/></g><g id="LWPOLYLINE-8" data-name="LWPOLYLINE"><rect class="cls-2" x="120.1" y="18.1" width="60" height="18"/></g></g><g id="_6_ANYTOOL_CUTTHROUGH_OUTSI" data-name="6_ANYTOOL_CUTTHROUGH_OUTSI"><g id="LWPOLYLINE-9" data-name="LWPOLYLINE"><polygon class="cls-3" points="743.01 672.9 765.24 667 762.55 656.85 757.72 658.13 732.19 561.96 737.03 560.68 734.33 550.53 712.1 556.43 666.06 382.94 688.29 377.04 685.6 366.89 680.76 368.17 654.14 267.85 550.35 267.85 550.35 262.85 539.85 262.85 539.85 285.85 360.35 285.85 360.35 262.85 349.85 262.85 349.85 267.85 250.35 267.85 250.35 262.85 239.85 262.85 239.85 285.85 60.35 285.85 60.35 262.85 49.85 262.85 49.85 267.85 0.35 267.85 0.35 18.36 49.85 18.35 49.85 23.36 60.35 23.35 60.35 0.35 239.85 0.35 239.85 23.36 250.35 23.35 250.35 18.36 349.85 18.35 349.85 23.36 360.35 23.35 360.35 0.35 539.85 0.35 539.85 23.36 550.35 23.36 550.35 18.36 834.39 18.36 813.52 45.5 809.55 42.45 803.15 50.77 825.74 68.15 832.14 59.82 828.18 56.77 849.06 29.63 921.92 304.17 917.08 305.45 919.78 315.6 942.01 309.7 988.05 483.2 965.82 489.1 968.51 499.25 973.35 497.96 998.87 594.13 994.03 595.42 996.73 605.57 1018.96 599.67 1065 773.16 1042.77 779.06 1045.46 789.21 1050.3 787.93 1062.99 835.77 821.84 899.77 809.14 851.92 813.98 850.64 811.28 840.49 789.05 846.39 743.01 672.9"/></g></g></g></svg>