<svg xmlns="http://www.w3.org/2000/svg" viewBox="0 0 150.71 286.71"><defs><style>.cls-1{fill:none;stroke:blue;stroke-linecap:round;stroke-linejoin:round;stroke-width:0.71px;}</style></defs><title>spaceinvader</title><g id="Layer_2" data-name="Layer 2"><g id="_6_ANYTOOL_CUTTHROUGH_OUTSI" data-name="6_ANYTOOL_CUTTHROUGH_OUTSI"><g id="LWPOLYLINE"><polygon class="cls-1" points="18.35 286.35 18.35 278.35 23.35 278.35 23.35 268.35 3.35 268.35 0.35 265.35 0.35 253.35 3.35 250.35 23.35 250.35 23.35 240.35 18.35 240.35 18.35 173.35 23.35 173.35 23.35 163.35 3.35 163.35 0.35 160.35 0.35 126.35 3.35 123.35 23.35 123.35 23.35 113.35 18.35 113.35 18.35 46.35 23.35 46.35 23.35 36.35 3.35 36.35 0.35 33.35 0.35 21.35 3.35 18.35 23.35 18.35 23.35 8.35 18.35 8.35 18.35 0.35 49.35 0.35 49.35 41.35 59.35 41.35 59.35 36.35 91.35 36.35 91.35 41.35 101.35 41.35 101.35 0.35 132.35 0.35 132.35 8.35 127.35 8.35 127.35 18.35 147.35 18.35 150.35 21.35 150.35 33.35 147.35 36.35 127.35 36.35 127.35 46.35 132.35 46.35 132.35 113.35 127.35 113.35 127.35 123.35 147.35 123.35 150.35 126.35 150.35 160.35 147.35 163.35 127.35 163.35 127.35 173.35 132.35 173.35 132.35 240.35 127.35 240.35 127.35 250.35 147.35 250.35 150.35 253.35 150.35 265.35 147.35 268.35 127.35 268.35 127.35 278.35 132.35 278.35 132.35 286.35 101.35 286.35 101.35 245.35 91.35 245.35 91.35 250.35 59.35 250.35 59.35 245.35 49.35 245.35 49.35 286.35 18.35 286.35"/></g></g></g></svg>